<svg xmlns="http://www.w3.org/2000/svg" xmlns:xlink="http://www.w3.org/1999/xlink" version="1.1" x="0px" y="0px" viewBox="0 -50 512 640" style="enable-background:new 0 0 512 512;" xml:space="preserve"><path d="M225.7,281.4l-119,68.7l76.6,44.2c2.8-0.9,5.7-1.5,8.6-2c-22-17.8-23.8-50.8-3.7-70.9c18.7-18.7,48.9-18.7,67.5,0  c20.1,20.1,18.3,53.1-3.7,70.9c4.6,0.7,9,2,13.2,3.7l79.5-45.8L309,329.5c3.5-6.2,6.6-10.3,6.6-17.8c0-18.2-19.8-29.2-35.1-20.4  c-6.4,3.7-8.6,8.6-12.1,14.7L225.7,281.4z M99.8,338l118.9-68.7v-31.2c-29.3-5.5-40.8-41.9-19.5-63.3c5.2-5.2,11.9-8.9,19.5-10.3  V132l-78.4,45.3c3,17.4-3.7,34.7-17,45.4c14.8,2.3,28.2,10.1,37.6,21.7l1.6,1.9v39.9H99.8V338z M277.2,421  c-8.8-9.8-21.1-15.4-34.4-15.4h-41.6c-7,0-13.7,1.5-19.9,4.5c-5.6,2.6-10.5,6.3-14.6,10.9v20.8h110.5V421z M279.3,404  c3.8,2.9,7.3,6.3,10.3,10l1.6,2v39.9H152.7v-39.9l1.6-2c3.9-4.8,8.5-9,13.7-12.4l-12.3-7.1l0,0l-70-40.4v-67.9H24v-39.9l1.6-1.9  c9.4-11.6,22.8-19.4,37.6-21.7c-22.1-17.8-23.8-50.9-3.7-70.9c23-23,61.6-16.7,76.3,12l20-11.5l0,0l77-44.4v70.1h-7  c-20.8,0-31.3,25.3-16.6,40c4.3,4.3,10.1,6.9,16.6,6.9h7v44.6l31.1,17.9c14.2-16.4,39.3-17.5,54.8-2c10.1,10.1,13.7,25.1,8.9,38.8  l45.1,26l-76.9,44.4l0,0L279.3,404z M245.8,331.3c-13.2-13.2-34.6-13.2-47.8,0c-13.2,13.2-13.2,34.6,0,47.7  c13.2,13.2,34.6,13.2,47.8,0C259,365.9,259,344.5,245.8,331.3L245.8,331.3z M148.5,251.3c-8.8-9.7-21.1-15.4-34.4-15.4H72.4  c-7.1,0-13.9,1.6-19.9,4.5c-5.5,2.6-10.5,6.3-14.5,10.9v20.9c36.8,0,73.6,0,110.5,0V251.3z M117.1,161.6  c-13.2-13.2-34.6-13.2-47.7,0c-13.2,13.2-13.2,34.6,0,47.8s34.6,13.2,47.7,0C130.3,196.2,130.3,174.8,117.1,161.6L117.1,161.6z   M474,169.8c-8.8-9.7-21.1-15.4-34.4-15.4h-41.6c-7.1,0-13.9,1.6-19.8,4.5c-5.6,2.6-10.5,6.3-14.6,10.9v20.9H474V169.8z   M465.4,146.3c8.2,3.9,15.3,9.6,21,16.5l1.6,1.9v39.9h-55.5V313l-56.6-32.7c3.5-6.2,6.6-10.3,6.6-17.8c0-18.2-19.8-29.2-35.1-20.3  c-6.4,3.7-8.6,8.5-12.1,14.7l-49.6-28.7v-44c-29.3-5.5-40.8-41.9-19.5-63.3c5.2-5.2,11.9-8.9,19.5-10.3V58.5l77,44.4l0,0l8.6,5  c-2.3-27.9,19.7-51.7,47.6-51.7c26.4,0,47.8,21.4,47.8,47.8c0,14.9-6.8,28.3-17.7,37.2C454.6,142,460.2,143.8,465.4,146.3  L465.4,146.3z M418.5,204.6h-69v-39.9l1.6-1.9c9.4-11.6,22.8-19.4,37.6-21.7c-7.9-6.4-11-13.1-11.5-13.6l-77.6-44.8v41.2h-7  c-20.8,0-31.3,25.3-16.6,40c4.3,4.3,10.1,6.9,16.6,6.9h7v49.3l31.1,17.9c14.2-16.4,39.3-17.5,54.8-2c10.1,10.1,13.7,25.1,8.9,38.8  l24.1,13.9V204.6z M442.6,80.1c-13.2-13.2-34.6-13.2-47.8,0c-6.1,6.1-9.9,14.5-9.9,23.9c0,4.8,1,9.4,2.8,13.6l0.3,0.2l-0.1,0.2  c9.7,21.4,37.9,26.7,54.7,10C455.8,114.7,455.8,93.3,442.6,80.1L442.6,80.1z"/><text x="0" y="527" fill="#000000" font-size="5px" font-weight="bold" font-family="'Helvetica Neue', Helvetica, Arial-Unicode, Arial, Sans-serif">Created by WBcreative</text><text x="0" y="532" fill="#000000" font-size="5px" font-weight="bold" font-family="'Helvetica Neue', Helvetica, Arial-Unicode, Arial, Sans-serif">from the Noun Project</text></svg>