<svg xmlns="http://www.w3.org/2000/svg" viewBox="0 0 128 160" x="0px" y="0px"><title>11</title><g data-name="1"><path d="M93.76859,26.22891l14.92755-6.21972L88.45761,54.16257A6.39164,6.39164,0,0,0,86.66873,53.88a6.45945,6.45945,0,0,0-5.25549,2.71984L72.02243,52.9888a6.33742,6.33742,0,0,0,.07355-.728,6.47681,6.47681,0,1,0-11.05066,4.58124L51.19547,73.58652a6.17782,6.17782,0,0,0-5.86109,1.22235l-7.70532-5.60382a6.48274,6.48274,0,1,0-11.7533.56488l-7.71289,6.85632A43.71478,43.71478,0,0,1,87.80722,32.48264l2.005-2.54279A46.47771,46.47771,0,0,0,60.76157,19.87692a47.0214,47.0214,0,1,0,39.2232,21.18585l10.97186-18.51532V36.06888H114.195V14.20975L92.52237,23.24014ZM86.66873,57.11844a3.23837,3.23837,0,1,1-3.2384,3.23834A3.24261,3.24261,0,0,1,86.66873,57.11844Zm-21.04956-8.096a3.23841,3.23841,0,1,1-3.2384,3.2384A3.24268,3.24268,0,0,1,65.61917,49.02243ZM49.42722,76.54874a3.2384,3.2384,0,1,1-3.23841,3.2384A3.24268,3.24268,0,0,1,49.42722,76.54874ZM31.61606,63.59518a3.23841,3.23841,0,1,1-3.23834,3.23841A3.24269,3.24269,0,0,1,31.61606,63.59518Zm72.86377,3.23841a43.46384,43.46384,0,0,1-8.096,25.29657V73.31039h-3.2384V95.9791h.1665a44.08788,44.08788,0,0,1-6.64325,6.04235V76.54874h-3.2384V104.203a43.60091,43.60091,0,0,1-6.47681,3.2273V68.45279h-3.2384v40.13953a43.36347,43.36347,0,0,1-6.47675,1.47686V70.072H64V110.4191c-1.07062.07892-2.148.13275-3.2384.13275s-2.16779-.05383-3.23835-.13275V92.74069h-3.2384v17.32849a43.36594,43.36594,0,0,1-6.47681-1.47686V95.9791h-3.2384v11.45117a43.60025,43.60025,0,0,1-6.47675-3.2273V83.02554h-3.2384v18.99591a44.08831,44.08831,0,0,1-6.64331-6.04235h.16657V83.02554H25.13931v9.10462a43.58828,43.58828,0,0,1-6.0274-12.0163l8.89392-7.90619a6.39442,6.39442,0,0,0,7.70312-.39581l7.70527,5.6037A6.47041,6.47041,0,1,0,54.00107,75.2059l9.84985-16.7445a6.39152,6.39152,0,0,0,1.76825.27624,6.45939,6.45939,0,0,0,5.25519-2.71948l9.39111,3.6112a6.35609,6.35609,0,0,0-.07354.72742,6.47678,6.47678,0,1,0,11.06494-4.56543L98.13766,44.1799A43.431,43.431,0,0,1,104.47983,66.83359ZM25.13931,76.54874h3.23841v3.2384H25.13931Zm9.71515,0h3.2384v3.2384h-3.2384Zm9.71515,12.95355H47.808v3.2384h-3.2384Zm9.71521-3.23834h3.2384v3.23834h-3.2384ZM64,63.59518h3.2384v3.23841H64Zm9.71515-1.6192h3.2384v3.23841h-3.2384Zm9.71521,8.096h3.2384v3.2384h-3.2384Zm9.71515-3.2384h3.2384V70.072h-3.2384ZM83.43033,40.92648h-3.2384v-3.2384h3.2384Zm-3.2384,6.47675V44.16489h3.2384v3.23834Zm3.2384-3.23834V40.92648h3.2384v3.23841Zm-3.2384-3.23841v3.23841H76.95352V40.92648Zm-25.90711-8.096h-3.2384V29.59213h3.2384Zm-3.2384,6.47681v-3.2384h3.2384v3.2384Zm3.2384-3.2384V32.83047h3.2384v3.23841Zm-3.2384-3.23841v3.23841H47.808V32.83047ZM41.33127,50.64163H38.09286v-3.2384h3.23841Zm-3.23841,6.47681V53.88h3.23841v3.2384ZM41.33127,53.88V50.64163h3.23834V53.88Zm-3.23841-3.23841V53.88h-3.2384V50.64163Z"/></g><text x="0" y="143" fill="#000000" font-size="5px" font-weight="bold" font-family="'Helvetica Neue', Helvetica, Arial-Unicode, Arial, Sans-serif">Created by Mayang Aria</text><text x="0" y="148" fill="#000000" font-size="5px" font-weight="bold" font-family="'Helvetica Neue', Helvetica, Arial-Unicode, Arial, Sans-serif">from the Noun Project</text></svg>