<svg xmlns="http://www.w3.org/2000/svg" xmlns:xlink="http://www.w3.org/1999/xlink" version="1.1" x="0px" y="0px" viewBox="0 0 100 125" style="enable-background:new 0 0 100 100;" xml:space="preserve"><path d="M66.56,57.02c-0.96,2.52-2.28,4.89-3.91,7.04c-1.8,2.37-2.64,4.86-2.64,7.83V93.9c0,0.61-0.49,1.1-1.1,1.1H32.46  c-0.61,0-1.1-0.49-1.1-1.1V83.1c0-0.84-0.69-1.53-1.53-1.53h-8.7c-5,0-9.07-4.07-9.07-9.07v-7.34l-2.81-0.91  c-1.18-0.39-2.07-1.19-2.57-2.33c-0.5-1.14-0.49-2.34,0.03-3.47l5.36-11.69c0.13-15.42,12.72-27.93,28.17-27.93  c4.6,0,9.16,1.13,13.2,3.28c0.54,0.28,0.74,0.95,0.45,1.48c-0.28,0.54-0.95,0.74-1.48,0.45c-3.72-1.98-7.93-3.02-12.17-3.02  C25.9,21.02,14.25,32.68,14.25,47c0,0.16-0.03,0.31-0.1,0.46l-5.45,11.9c-0.26,0.56-0.26,1.11-0.01,1.68  c0.25,0.57,0.65,0.93,1.24,1.13l3.57,1.16c0.45,0.15,0.76,0.57,0.76,1.04v8.13c0,3.79,3.08,6.88,6.88,6.88h8.7  c2.06,0,3.73,1.67,3.73,3.73v9.7H57.8V71.89c0-3.43,1.01-6.43,3.09-9.16c1.51-1.98,2.73-4.17,3.61-6.49  c0.22-0.57,0.85-0.85,1.42-0.64C66.49,55.82,66.77,56.45,66.56,57.02z M80.62,41.06v1.57c0.89,0.58,1.48,1.59,1.48,2.73  c0,0.83-0.31,1.59-0.83,2.17c0.51,0.58,0.83,1.34,0.83,2.17c0,1.8-1.47,3.27-3.27,3.27h-1.47l-0.77,1.71  c-0.43,0.96-1.35,1.55-2.4,1.55h-4.44c-1.05,0-1.97-0.59-2.4-1.55l-0.77-1.71h-1.47c-1.8,0-3.27-1.47-3.27-3.27  c0-0.83,0.31-1.59,0.83-2.17c-0.51-0.58-0.83-1.34-0.83-2.17c0-1.14,0.59-2.14,1.48-2.73v-1.57c0-1.01-0.39-1.85-1.17-2.49  c-3.53-2.93-5.56-7.25-5.56-11.83c0-8.48,6.9-15.38,15.38-15.38c8.48,0,15.38,6.9,15.38,15.38c0,4.59-2.03,8.9-5.56,11.83  C81.01,39.21,80.62,40.05,80.62,41.06z M63.55,36.88c1.28,1.07,1.96,2.51,1.96,4.18v1.03h2.24v-4.8c0-1.19,0.5-2.26,1.3-3.03v-3.6  h-1.74c-2.17,0-3.93-1.76-3.93-3.93c0-2.17,1.76-3.93,3.93-3.93c2.17,0,3.93,1.76,3.93,3.93v1.74h1.43v-1.74  c0-2.17,1.76-3.93,3.93-3.93s3.93,1.76,3.93,3.93c0,2.17-1.76,3.93-3.93,3.93h-1.74v3.6c0.8,0.77,1.3,1.84,1.3,3.03v4.8h2.25v-1.03  c0-1.67,0.68-3.12,1.96-4.18c3.03-2.52,4.77-6.21,4.77-10.15c0-7.27-5.91-13.18-13.18-13.18s-13.18,5.91-13.18,13.18  C58.78,30.66,60.52,34.36,63.55,36.88z M69.05,26.73c0-0.96-0.78-1.74-1.74-1.74c-0.96,0-1.74,0.78-1.74,1.74  c0,0.96,0.78,1.74,1.74,1.74h1.74V26.73z M72.68,30.66h-1.43v2.49c0.23-0.04,0.47-0.07,0.72-0.07c0.25,0,0.48,0.03,0.72,0.07V30.66z   M69.95,42.09h4.03v-4.8c0-1.11-0.9-2.02-2.02-2.02c-1.11,0-2.02,0.9-2.02,2.02V42.09z M76.61,28.47c0.96,0,1.74-0.78,1.74-1.74  c0-0.96-0.78-1.74-1.74-1.74s-1.74,0.78-1.74,1.74v1.74H76.61z M74.95,52.96h-5.96l0.36,0.81c0.08,0.17,0.21,0.26,0.4,0.26h4.44  c0.18,0,0.32-0.09,0.4-0.26L74.95,52.96z M79.9,49.7c0-0.59-0.48-1.07-1.07-1.07H65.11c-0.59,0-1.07,0.48-1.07,1.07  s0.48,1.07,1.07,1.07h13.72C79.42,50.77,79.9,50.29,79.9,49.7z M79.9,45.36c0-0.59-0.48-1.07-1.07-1.07H65.11  c-0.59,0-1.07,0.48-1.07,1.07s0.48,1.07,1.07,1.07h13.72C79.42,46.43,79.9,45.95,79.9,45.36z M71.96,10.35c0.61,0,1.1-0.49,1.1-1.1  V6.1c0-0.61-0.49-1.1-1.1-1.1s-1.1,0.49-1.1,1.1v3.15C70.87,9.86,71.36,10.35,71.96,10.35z M58.83,15.15  c0.21,0.21,0.5,0.32,0.78,0.32c0.28,0,0.56-0.11,0.78-0.32c0.43-0.43,0.43-1.12,0-1.55l-2.23-2.23c-0.43-0.43-1.12-0.43-1.55,0  c-0.43,0.43-0.43,1.12,0,1.55L58.83,15.15z M50.23,26.73c0,0.61,0.49,1.1,1.1,1.1h3.15c0.61,0,1.1-0.49,1.1-1.1s-0.49-1.1-1.1-1.1  h-3.15C50.72,25.64,50.23,26.13,50.23,26.73z M57.37,42.42c0.28,0,0.56-0.11,0.78-0.32l2.23-2.23c0.43-0.43,0.43-1.12,0-1.55  c-0.43-0.43-1.12-0.43-1.55,0l-2.23,2.23c-0.43,0.43-0.43,1.12,0,1.55C56.81,42.32,57.09,42.42,57.37,42.42z M92.6,25.64h-3.15  c-0.61,0-1.1,0.49-1.1,1.1s0.49,1.1,1.1,1.1h3.15c0.61,0,1.1-0.49,1.1-1.1S93.21,25.64,92.6,25.64z M85.1,38.32  c-0.43-0.43-1.12-0.43-1.55,0c-0.43,0.43-0.43,1.12,0,1.55l2.23,2.23c0.21,0.21,0.5,0.32,0.78,0.32s0.56-0.11,0.78-0.32  c0.43-0.43,0.43-1.12,0-1.55L85.1,38.32z M85.78,11.37l-2.23,2.23c-0.43,0.43-0.43,1.12,0,1.55c0.21,0.21,0.5,0.32,0.78,0.32  c0.28,0,0.56-0.11,0.78-0.32l2.23-2.23c0.43-0.43,0.43-1.12,0-1.55C86.9,10.94,86.21,10.94,85.78,11.37z M51.5,50.1  c-0.33,0.79,0.14,1.67,0.45,2.13c0.59,0.87,0.55,2.01-0.11,2.84c-0.78,0.99-1.68,1.89-2.67,2.68c-0.83,0.66-1.97,0.7-2.84,0.11  c-0.46-0.31-1.34-0.78-2.13-0.45c-0.79,0.33-1.08,1.29-1.19,1.83c-0.2,1.04-1.04,1.81-2.09,1.94c-0.63,0.07-1.26,0.11-1.89,0.11  c-0.63,0-1.26-0.04-1.89-0.11c-1.05-0.12-1.89-0.9-2.09-1.94c-0.1-0.54-0.4-1.5-1.19-1.83c-0.79-0.33-1.67,0.14-2.13,0.45  c-0.87,0.59-2.02,0.55-2.84-0.11c-0.99-0.78-1.89-1.69-2.67-2.68c-0.65-0.83-0.7-1.97-0.11-2.84c0.31-0.46,0.78-1.34,0.45-2.13  c-0.33-0.79-1.28-1.08-1.82-1.18c-1.03-0.2-1.81-1.04-1.93-2.09c-0.14-1.24-0.14-2.5,0-3.74c0.12-1.05,0.9-1.89,1.93-2.09  c0.54-0.1,1.49-0.4,1.82-1.18c0.33-0.79-0.14-1.67-0.45-2.13c-0.59-0.87-0.55-2.01,0.11-2.84c0.78-0.99,1.68-1.89,2.67-2.68  c0.83-0.66,1.97-0.7,2.84-0.11c0.46,0.31,1.34,0.78,2.13,0.45c0.79-0.33,1.08-1.29,1.19-1.83c0.2-1.04,1.04-1.82,2.09-1.94  c1.25-0.15,2.52-0.15,3.78,0c1.05,0.12,1.89,0.9,2.09,1.94c0.1,0.54,0.4,1.5,1.19,1.83c0.79,0.33,1.67-0.14,2.13-0.45  c0.87-0.59,2.02-0.55,2.84,0.11c0.99,0.79,1.89,1.69,2.67,2.68c0.65,0.83,0.7,1.97,0.11,2.84c-0.31,0.46-0.78,1.34-0.45,2.13  c0.33,0.79,1.28,1.08,1.82,1.18c1.03,0.2,1.81,1.04,1.93,2.09c0.14,1.24,0.14,2.5,0,3.74c-0.12,1.05-0.9,1.89-1.93,2.09  C52.78,49.02,51.83,49.31,51.5,50.1z M52.9,46.76c0.1-0.02,0.16-0.08,0.17-0.18c0.12-1.07,0.12-2.16,0-3.24  c-0.01-0.1-0.07-0.16-0.17-0.18c-1.68-0.33-2.89-1.21-3.42-2.5c-0.53-1.29-0.3-2.78,0.66-4.2c0.06-0.08,0.05-0.17-0.01-0.25  c-0.68-0.86-1.46-1.64-2.31-2.32c-0.08-0.06-0.16-0.07-0.25-0.01c-1.42,0.96-2.91,1.2-4.2,0.66c-1.29-0.53-2.18-1.76-2.5-3.44  c-0.02-0.1-0.08-0.16-0.18-0.17c-1.08-0.13-2.19-0.13-3.27,0c-0.1,0.01-0.16,0.07-0.18,0.17c-0.32,1.69-1.21,2.91-2.5,3.44  c-1.29,0.53-2.78,0.3-4.2-0.66c-0.08-0.06-0.17-0.05-0.25,0.01c-0.86,0.68-1.64,1.46-2.31,2.32c-0.06,0.08-0.07,0.17-0.01,0.25  c0.96,1.42,1.19,2.91,0.66,4.2c-0.53,1.29-1.75,2.17-3.42,2.5c-0.1,0.02-0.16,0.08-0.17,0.18c-0.12,1.07-0.12,2.16,0,3.24  c0.01,0.1,0.07,0.16,0.17,0.18c1.68,0.33,2.89,1.21,3.42,2.5c0.53,1.29,0.3,2.78-0.66,4.2c-0.06,0.08-0.05,0.17,0.01,0.25  c0.68,0.86,1.46,1.64,2.31,2.32c0.08,0.06,0.17,0.07,0.25,0.01c0.92-0.62,1.87-0.94,2.78-0.94c0.49,0,0.97,0.09,1.42,0.28  c1.29,0.53,2.18,1.76,2.5,3.44c0.02,0.1,0.08,0.16,0.18,0.17c1.09,0.13,2.19,0.13,3.27,0c0.1-0.01,0.16-0.07,0.18-0.17  c0.32-1.69,1.21-2.91,2.5-3.44c1.29-0.53,2.78-0.3,4.2,0.66c0.08,0.06,0.17,0.05,0.25-0.01c0.86-0.68,1.64-1.46,2.31-2.32  c0.06-0.08,0.07-0.16,0.01-0.25c-0.96-1.42-1.19-2.91-0.66-4.2c0,0,0,0,0,0C50.01,47.97,51.23,47.09,52.9,46.76z M40.14,43.82v-4.7  c0-0.61-0.49-1.1-1.1-1.1s-1.1,0.49-1.1,1.1v4.7c-0.19,0.19-0.33,0.43-0.41,0.69l-2.76,1.46c-0.54,0.28-0.74,0.95-0.46,1.48  c0.2,0.37,0.58,0.58,0.97,0.58c0.17,0,0.35-0.04,0.51-0.13l2.76-1.46c0.15,0.05,0.31,0.08,0.48,0.08c0.87,0,1.58-0.71,1.58-1.58  C40.63,44.51,40.44,44.11,40.14,43.82z M48.97,44.96c0,5.47-4.45,9.92-9.92,9.92c-5.47,0-9.92-4.45-9.92-9.92  c0-5.47,4.45-9.92,9.92-9.92C44.52,35.04,48.97,39.49,48.97,44.96z M46.77,44.96c0-4.26-3.47-7.73-7.73-7.73  c-4.26,0-7.73,3.47-7.73,7.73c0,4.26,3.47,7.73,7.73,7.73C43.31,52.69,46.77,49.22,46.77,44.96z"/><text x="0" y="115" fill="#000000" font-size="5px" font-weight="bold" font-family="'Helvetica Neue', Helvetica, Arial-Unicode, Arial, Sans-serif">Created by Articon</text><text x="0" y="120" fill="#000000" font-size="5px" font-weight="bold" font-family="'Helvetica Neue', Helvetica, Arial-Unicode, Arial, Sans-serif">from the Noun Project</text></svg>