<svg xmlns="http://www.w3.org/2000/svg" xmlns:xlink="http://www.w3.org/1999/xlink" version="1.1" x="0px" y="0px" viewBox="0 0 65 81.25" enable-background="new 0 0 65 65" xml:space="preserve"><g><path d="M61.7,48.3V9.9H3.3v38.4h-3.5v3l2.8,3.9h60l2.8-3.9v-3H61.7z M60.2,11.4v4.3H4.8v-4.3H60.2z M4.8,17.3h55.4v31H4.8V17.3z    M63.8,50.8l-2,2.8H3.3l-2-2.8v-1h2h60.5V50.8z"/><polygon points="39.7,28.9 45.2,33.5 39.7,38 40.6,39.2 47.6,33.5 40.6,27.7  "/><polygon points="24.4,27.7 17.4,33.5 24.4,39.2 25.3,38 19.8,33.5 25.3,28.9  "/><rect x="31.7" y="22.1" transform="matrix(-0.8965 -0.4431 0.4431 -0.8965 46.8139 77.8396)" width="1.5" height="22.8"/><rect x="7" y="12.8" width="1.5" height="1.5"/><rect x="13.6" y="12.8" width="1.5" height="1.5"/><rect x="10.3" y="12.8" width="1.5" height="1.5"/></g><text x="0" y="80" fill="#000000" font-size="5px" font-weight="bold" font-family="'Helvetica Neue', Helvetica, Arial-Unicode, Arial, Sans-serif">Created by Creative Stall</text><text x="0" y="85" fill="#000000" font-size="5px" font-weight="bold" font-family="'Helvetica Neue', Helvetica, Arial-Unicode, Arial, Sans-serif">from the Noun Project</text></svg>