<svg xmlns="http://www.w3.org/2000/svg" viewBox="0 0 512 640" x="0px" y="0px"><path d="M504,80H481.994q-.926-2.373-1.989-4.691l13.652-13.652a8,8,0,0,0,0-11.314l-32-32a8,8,0,0,0-11.314,0L436.691,32q-2.316-1.062-4.691-1.989V8a8,8,0,0,0-8-8H376a8,8,0,0,0-8,8V30.006q-2.373.925-4.691,1.989L349.657,18.343a8,8,0,0,0-11.314,0l-32,32a8,8,0,0,0,0,11.314L320,75.309q-1.062,2.316-1.989,4.691H296a8,8,0,0,0-8,8v48a8,8,0,0,0,8,8h22.006q.926,2.373,1.989,4.691l-13.652,13.652a8,8,0,0,0,0,11.314l32,32a8,8,0,0,0,11.314,0l13.652-13.652q2.316,1.062,4.691,1.989V216a8,8,0,0,0,8,8h48a8,8,0,0,0,8-8V193.994q2.373-.925,4.691-1.989l13.652,13.652a8,8,0,0,0,11.314,0l32-32a8,8,0,0,0,0-11.314l-13.652-13.652q1.062-2.316,1.989-4.691H504a8,8,0,0,0,8-8V88A8,8,0,0,0,504,80Zm-8,48H476.33a8,8,0,0,0-7.634,5.608,71.417,71.417,0,0,1-5.449,12.83,8,8,0,0,0,1.365,9.489L476.687,168,456,188.687l-12.073-12.075a8,8,0,0,0-9.489-1.365,71.417,71.417,0,0,1-12.83,5.449A8,8,0,0,0,416,188.33V208H384V188.33a8,8,0,0,0-5.608-7.634,71.417,71.417,0,0,1-12.83-5.449,8,8,0,0,0-9.489,1.365L344,188.687,323.313,168l12.075-12.073a8,8,0,0,0,1.365-9.489,71.417,71.417,0,0,1-5.449-12.83A8,8,0,0,0,323.67,128H304V96h19.67a8,8,0,0,0,7.634-5.608,71.417,71.417,0,0,1,5.449-12.83,8,8,0,0,0-1.365-9.489L323.313,56,344,35.313l12.073,12.075a8,8,0,0,0,9.489,1.365,71.417,71.417,0,0,1,12.83-5.449A8,8,0,0,0,384,35.67V16h32V35.67a8,8,0,0,0,5.608,7.634,71.417,71.417,0,0,1,12.83,5.449,8,8,0,0,0,9.489-1.365L456,35.313,476.687,56,464.612,68.073a8,8,0,0,0-1.365,9.489,71.417,71.417,0,0,1,5.449,12.83A8,8,0,0,0,476.33,96H496Z"/><path d="M400,48a64,64,0,1,0,64,64A64.072,64.072,0,0,0,400,48Zm0,112a48,48,0,1,1,48-48A48.053,48.053,0,0,1,400,160Z"/><path d="M400,80a32,32,0,1,0,32,32A32.036,32.036,0,0,0,400,80Zm0,48a16,16,0,1,1,16-16A16.019,16.019,0,0,1,400,128Z"/><path d="M392,400a40,40,0,1,0,40,40A40.045,40.045,0,0,0,392,400Zm0,64a24,24,0,1,1,24-24A24.028,24.028,0,0,1,392,464Z"/><circle cx="40" cy="232" r="8"/><circle cx="392" cy="440" r="8"/><circle cx="40" cy="280" r="8"/><circle cx="40" cy="328" r="8"/><path d="M424,240H376a8,8,0,0,0-8,8v56H352a8,8,0,0,0-5.657,13.657l48,48a8,8,0,0,0,11.314,0l48-48A8,8,0,0,0,448,304H432V248A8,8,0,0,0,424,240ZM400,348.687,371.313,320H376a8,8,0,0,0,8-8V256h32v56a8,8,0,0,0,8,8h4.687Z"/><path d="M147.54,358.055A75.017,75.017,0,0,0,160,351.779v27.937a8,8,0,0,0,13.657,5.657l11.314-11.314,39.6,39.6a8,8,0,0,0,11.315,0l33.941-33.941a8,8,0,0,0,0-11.315l-39.6-39.6,11.313-11.315a8,8,0,0,0-5.657-13.656H176V208h59.882a8,8,0,0,0,5.657-13.656l-11.313-11.315,39.6-39.6a8,8,0,0,0,0-11.315L235.883,98.176a8,8,0,0,0-11.315,0l-39.6,39.6-11.315-11.313A8,8,0,0,0,160,132.118v28.1a75.094,75.094,0,0,0-12.46-6.275C131.507,147.532,110.362,144,88,144s-43.507,3.532-59.54,9.945C10.107,161.286,0,171.96,0,184V328c0,12.04,10.107,22.714,28.46,30.055C44.493,364.468,65.638,368,88,368S131.507,364.468,147.54,358.055ZM176,151.431l3.314,3.314a8,8,0,0,0,11.314,0l39.6-39.6,22.628,22.628-39.6,39.6a8,8,0,0,0,0,11.314L216.569,192H176Zm0,168.4h40.568l-3.313,3.314a8,8,0,0,0,0,11.314l39.6,39.6-22.628,22.628-39.6-39.6a8,8,0,0,0-11.315,0L176,360.4ZM88,160c43.952,0,72,14.215,72,24s-28.048,24-72,24-72-14.215-72-24S44.048,160,88,160ZM16,207.779a75.017,75.017,0,0,0,12.46,6.276C44.493,220.468,65.638,224,88,224s43.507-3.532,59.54-9.945A75.017,75.017,0,0,0,160,207.779V232c0,9.785-28.048,24-72,24s-72-14.215-72-24Zm0,48a75.017,75.017,0,0,0,12.46,6.276C44.493,268.468,65.638,272,88,272s43.507-3.532,59.54-9.945A75.017,75.017,0,0,0,160,255.779V280c0,9.785-28.048,24-72,24s-72-14.215-72-24ZM16,328V303.779a75.017,75.017,0,0,0,12.46,6.276C44.493,316.468,65.638,320,88,320s43.507-3.532,59.54-9.945A75.017,75.017,0,0,0,160,303.779V328c0,9.785-28.048,24-72,24S16,337.785,16,328Z"/><path d="M480.153,401.881C453.832,379.716,423.35,368,392,368s-61.832,11.716-88.153,33.881c-19.737,16.62-30.2,33.182-30.631,33.879a8,8,0,0,0,0,8.48c.435.7,10.894,17.259,30.631,33.879C330.168,500.284,360.65,512,392,512s61.832-11.716,88.153-33.881c19.737-16.62,30.2-33.182,30.631-33.879a8,8,0,0,0,0-8.48C510.349,435.063,499.89,418.5,480.153,401.881Zm-10.7,64.331C445.817,485.978,419.759,496,392,496s-53.817-10.022-77.452-29.788A155.806,155.806,0,0,1,289.749,440a155.779,155.779,0,0,1,24.8-26.212C338.183,394.022,364.241,384,392,384s53.817,10.022,77.452,29.788A155.779,155.779,0,0,1,494.251,440,155.779,155.779,0,0,1,469.452,466.212Z"/><text x="0" y="527" fill="#000000" font-size="5px" font-weight="bold" font-family="'Helvetica Neue', Helvetica, Arial-Unicode, Arial, Sans-serif">Created by iconixar</text><text x="0" y="532" fill="#000000" font-size="5px" font-weight="bold" font-family="'Helvetica Neue', Helvetica, Arial-Unicode, Arial, Sans-serif">from the Noun Project</text></svg>