<svg xmlns="http://www.w3.org/2000/svg" xmlns:xlink="http://www.w3.org/1999/xlink" xml:space="preserve" version="1.0" style="shape-rendering:geometricPrecision;text-rendering:geometricPrecision;image-rendering:optimizeQuality;" viewBox="0 0 10000 12500" x="0px" y="0px" fillRule="evenodd" clip-rule="evenodd"><defs><style type="text/css">
   
    .fil0 {fill:white;fillRule:nonzero}
   
  </style></defs><g><path class="fil0" d="M5196 6199l0 638c222,41 421,149 574,302l0 0c445,445 402,1179 0,1541l0 0c-686,686 -1860,194 -1860,-771 0,-532 387,-985 905,-1073l0 -637 -564 0c-105,0 -191,-85 -191,-190l0 -1510c0,-105 86,-191 191,-191l564 0 0 -507 -2239 0 0 507 564 0c106,0 191,86 191,191l0 1510c0,105 -85,190 -191,190l-1509 0c-106,0 -191,-85 -191,-190l0 -1510c0,-105 85,-191 191,-191l564 0 0 -697c0,-105 85,-191 191,-191l2429 0 0 -529 -564 0c-105,0 -191,-86 -191,-191l0 -1510c0,-105 86,-190 191,-190l1509 0c106,0 191,85 191,190l0 1510c0,105 -85,191 -191,191l-564 0 0 529 2463 0c105,0 190,86 190,191l0 697 520 0c106,0 191,86 191,191l0 1510c0,105 -85,190 -191,190l-1509 0c-106,0 -191,-85 -191,-190l0 -1510c0,-105 85,-191 191,-191l608 0 0 -507 -2272 0 0 507 564 0c106,0 191,86 191,191l0 1510c0,105 -85,190 -191,190l-564 0zm305 1209c-442,-443 -1210,-132 -1210,501 0,631 765,946 1210,502l1 0c276,-277 276,-726 -1,-1003l1 0 -1 0zm-3115 -2719l-565 0 0 1129 1129 0 0 -1129 -564 0zm2620 0l-565 0 0 1129 1129 0 0 -1129 -564 0zm564 -3308l-1129 0 0 1129 1129 0 0 -1129zm2089 3308l-609 0 0 1129 1129 0 0 -1129 -520 0z"/></g><text x="0" y="10015" fill="#000000" font-size="5px" font-weight="bold" font-family="'Helvetica Neue', Helvetica, Arial-Unicode, Arial, Sans-serif">Created by Zaki Ahlansyah</text><text x="0" y="10020" fill="#000000" font-size="5px" font-weight="bold" font-family="'Helvetica Neue', Helvetica, Arial-Unicode, Arial, Sans-serif">from the Noun Project</text></svg>