<svg xmlns="http://www.w3.org/2000/svg" data-name="Layer 1" viewBox="0 0 100 125" x="0px" y="0px"><title>77 all</title><path d="M18.66,48.94,2.57,56.36a1,1,0,0,0-.27.19l-.06.07a1,1,0,0,0-.15.22l0,.09a1,1,0,0,0-.07.35V75.09a1,1,0,0,0,.58.91l16.08,7.41a1,1,0,0,0,.84,0l7.6-3.5L50.67,93.37a1,1,0,0,0,1,0l22.26-13,6.58,3a1,1,0,0,0,.84,0L97.43,76a1,1,0,0,0,.58-.91V57.27a1,1,0,0,0-.07-.35l0-.09a1,1,0,0,0-.15-.22l-.06-.07a1,1,0,0,0-.27-.19L81.34,48.94a1,1,0,0,0-.38-.08l0-12.24a1,1,0,0,0-.5-.86l-12.32-7V14.91a1,1,0,0,0-.07-.35l0-.09a1,1,0,0,0-.15-.22l-.06-.07a1,1,0,0,0-.27-.19L51.43,6.59a1,1,0,0,0-.84,0L34.51,14a1,1,0,0,0-.27.19l-.06.07a1,1,0,0,0-.15.22l0,.09a1,1,0,0,0-.07.35V28.75L21.44,36a1,1,0,0,0-.5.87l0,12.73-1.5-.69A1,1,0,0,0,18.66,48.94Zm.42,2,13.7,6.31-13.7,6.31L5.38,57.27Zm8,26.66-.06.11-7,3.21V65.32l14.08-6.49V74.45l-7,3.21ZM4,58.83l14.08,6.49V80.94L4,74.45Zm61.85,0,14.08,6.49V80.94L65.84,74.45ZM81.93,80.94V65.32L96,58.83V74.45Zm12.7-23.67-13.7,6.31-13.7-6.31L80.93,51ZM35.93,16.47,50,23V38.59L35.93,32.09ZM52,23l14.08-6.49V32.09L52,38.59ZM51,8.6l13.7,6.31L51,21.22l-13.7-6.31ZM22.95,37.47l11-6.41v1.67a1,1,0,0,0,.58.91l16.08,7.41a1,1,0,0,0,.84,0l16.08-7.41a1,1,0,0,0,.58-.91V31l10.83,6.18,0,12.44L64.42,56.36a1,1,0,0,0-.27.19l-.06.07a1,1,0,0,0-.15.22l0,.09a1,1,0,0,0-.07.35V75.09a1,1,0,0,0,.58.91l7.29,3.36-20.55,12L29.33,78.88,35.58,76a1,1,0,0,0,.58-.91V57.27a1,1,0,0,0-.07-.35l0-.09a1,1,0,0,0-.15-.22l-.06-.07a1,1,0,0,0-.27-.19L22.86,50.5H23Z"/><text x="0" y="115" fill="#000000" font-size="5px" font-weight="bold" font-family="'Helvetica Neue', Helvetica, Arial-Unicode, Arial, Sans-serif">Created by Anil</text><text x="0" y="120" fill="#000000" font-size="5px" font-weight="bold" font-family="'Helvetica Neue', Helvetica, Arial-Unicode, Arial, Sans-serif">from the Noun Project</text></svg>