<svg xmlns="http://www.w3.org/2000/svg" data-name="Layer 1" viewBox="0 0 100 125" x="0px" y="0px"><path d="M50,32.126c-4.774,0-9.263,1.859-12.639,5.235-6.969,6.969-6.969,18.308,0,25.277,3.376,3.376,7.865,5.235,12.639,5.235s9.263-1.859,12.639-5.235c6.969-6.969,6.969-18.308,0-25.277-3.376-3.376-7.865-5.235-12.639-5.235Zm-9.848,29.411c2.222-3.231,5.882-5.142,9.881-5.142,.024,0,.048,0,.072,0,3.942,.023,7.546,1.935,9.744,5.141-2.744,2.35-6.197,3.636-9.849,3.636s-7.104-1.285-9.848-3.635Zm9.848-8.162c-2.757,0-5-2.243-5-5s2.243-5,5-5,5,2.243,5,5-2.243,5-5,5Zm11.769,6.201c-1.788-2.417-4.247-4.187-7.046-5.124,1.811-1.411,2.98-3.61,2.98-6.078,0-4.247-3.455-7.702-7.702-7.702s-7.702,3.455-7.702,7.702c0,2.474,1.174,4.677,2.992,6.088-2.803,.938-5.267,2.702-7.057,5.116-4.853-5.953-4.506-14.76,1.04-20.306,2.866-2.866,6.676-4.444,10.728-4.444s7.863,1.578,10.728,4.444c5.545,5.545,5.892,14.35,1.041,20.304Zm29.339-16.14c-3.362,0-6.141,2.541-6.519,5.804h-4.18c-.033-1.329-.152-2.656-.359-3.975-.093-.59-.561-1.049-1.153-1.129l-3.786-.513c-.612-2.423-1.566-4.726-2.843-6.868l2.315-3.041c.362-.475,.369-1.132,.017-1.615-.588-.806-1.217-1.577-1.877-2.318l3.127-3.127c.996,.56,2.107,.842,3.219,.842,1.681,0,3.362-.64,4.642-1.92,2.56-2.56,2.56-6.724,0-9.284-1.24-1.24-2.889-1.923-4.642-1.923s-3.402,.683-4.642,1.923c-1.24,1.24-1.923,2.888-1.923,4.642,0,1.438,.46,2.805,1.309,3.935l-2.974,2.974c-.926-.871-1.904-1.687-2.936-2.44-.483-.352-1.139-.345-1.615,.017l-3.041,2.315c-2.142-1.277-4.445-2.23-6.868-2.843l-.513-3.786c-.08-.592-.54-1.061-1.13-1.153-1.124-.176-2.254-.288-3.385-.338v-4.296c2.974-.625,5.214-3.268,5.214-6.424,0-3.62-2.945-6.565-6.565-6.565s-6.565,2.945-6.565,6.565c0,3.157,2.24,5.8,5.214,6.424v4.295c-1.132,.05-2.261,.162-3.385,.339-.59,.093-1.049,.561-1.129,1.153l-.513,3.786c-2.424,.612-4.727,1.566-6.869,2.843l-3.041-2.315c-.475-.362-1.132-.369-1.615-.016-1.032,.753-2.01,1.569-2.936,2.44l-2.974-2.974c.849-1.129,1.309-2.497,1.309-3.935,0-1.753-.683-3.402-1.923-4.642-1.24-1.24-2.888-1.923-4.642-1.923s-3.402,.683-4.642,1.923c-2.56,2.56-2.56,6.724,0,9.284,1.28,1.28,2.961,1.92,4.642,1.92,1.112,0,2.223-.282,3.219-.842l3.127,3.127c-.661,.742-1.29,1.513-1.878,2.318-.352,.483-.345,1.139,.017,1.615l2.314,3.04c-1.277,2.142-2.23,4.445-2.842,6.869l-3.786,.513c-.592,.08-1.061,.54-1.153,1.13-.207,1.32-.326,2.647-.359,3.975h-4.18c-.379-3.263-3.157-5.804-6.519-5.804-3.62,0-6.565,2.945-6.565,6.565s2.945,6.565,6.565,6.565c2.944,0,5.442-1.948,6.272-4.623h4.48c.06,.934,.161,1.866,.307,2.795,.093,.59,.561,1.049,1.153,1.13l3.786,.513c.612,2.423,1.566,4.726,2.843,6.869l-2.315,3.04c-.362,.475-.369,1.132-.016,1.615,.753,1.032,1.57,2.01,2.44,2.936l-2.974,2.974c-1.129-.849-2.497-1.309-3.935-1.309-1.753,0-3.402,.683-4.642,1.923-2.56,2.559-2.56,6.724,0,9.284h0c1.28,1.28,2.961,1.92,4.642,1.92s3.362-.64,4.642-1.92c1.24-1.24,1.923-2.889,1.923-4.642,0-1.147-.294-2.248-.843-3.221l3.126-3.126c.742,.66,1.512,1.29,2.318,1.877,.483,.352,1.139,.346,1.615-.017l3.039-2.314c2.142,1.277,4.446,2.23,6.87,2.842l.513,3.786c.08,.592,.54,1.061,1.13,1.153,1.124,.176,2.254,.288,3.385,.338v4.296c-2.974,.625-5.214,3.267-5.214,6.424,0,3.62,2.945,6.565,6.565,6.565s6.565-2.945,6.565-6.565c0-3.157-2.24-5.8-5.214-6.424v-4.296c1.131-.05,2.261-.162,3.385-.339,.59-.093,1.049-.561,1.129-1.153l.513-3.786c2.424-.612,4.727-1.566,6.869-2.843l3.041,2.315c.475,.362,1.132,.368,1.615,.017,.897-.654,1.752-1.357,2.569-2.101l2.91,3.288c-.572,.987-.878,2.11-.878,3.282,0,1.753,.683,3.402,1.923,4.642,1.28,1.28,2.961,1.92,4.642,1.92s3.362-.64,4.642-1.92h0c2.56-2.56,2.56-6.724,0-9.284-1.24-1.24-2.889-1.923-4.642-1.923-1.41,0-2.752,.443-3.869,1.261l-2.807-3.172c.784-.852,1.522-1.749,2.207-2.689,.352-.483,.345-1.139-.016-1.615l-2.314-3.04c1.277-2.143,2.23-4.446,2.842-6.869l3.786-.513c.592-.08,1.061-.54,1.153-1.13,.146-.929,.247-1.861,.306-2.795h4.48c.83,2.675,3.327,4.623,6.272,4.623,3.62,0,6.565-2.945,6.565-6.565s-2.945-6.565-6.565-6.565ZM8.892,53.862c-2.13,0-3.863-1.733-3.863-3.862s1.733-3.863,3.863-3.863,3.863,1.733,3.863,3.863-1.733,3.862-3.863,3.862ZM76.337,18.201c.73-.73,1.699-1.131,2.731-1.131s2.002,.402,2.731,1.131c1.506,1.506,1.506,3.956,0,5.463-1.506,1.506-3.957,1.506-5.463,0-.73-.73-1.131-1.7-1.131-2.731s.402-2.002,1.131-2.731Zm-30.199-9.309c0-2.13,1.733-3.863,3.863-3.863s3.863,1.733,3.863,3.863-1.733,3.863-3.863,3.863-3.863-1.733-3.863-3.863Zm-27.937,14.772c-1.506-1.506-1.506-3.957,0-5.463,.73-.73,1.7-1.131,2.731-1.131s2.002,.402,2.731,1.131c.73,.73,1.131,1.699,1.131,2.731s-.402,2.002-1.131,2.731c-1.506,1.506-3.956,1.506-5.463,0Zm5.463,58.136c-1.506,1.506-3.957,1.506-5.463,0h0c-1.506-1.506-1.506-3.956,0-5.462,.73-.73,1.7-1.131,2.731-1.131s2.002,.402,2.731,1.131c.73,.729,1.131,1.699,1.131,2.731s-.402,2.002-1.131,2.731Zm30.199,9.309c0,2.13-1.733,3.863-3.863,3.863s-3.863-1.733-3.863-3.863,1.733-3.863,3.863-3.863,3.863,1.733,3.863,3.863Zm25.205-15.903c1.032,0,2.002,.402,2.731,1.131,1.506,1.506,1.506,3.956,0,5.463-1.506,1.506-3.957,1.506-5.463,0-.73-.729-1.131-1.699-1.131-2.731s.402-2.002,1.131-2.731c.73-.73,1.7-1.131,2.731-1.131Zm-1.55-21.879l-3.693,.5c-.565,.077-1.02,.499-1.14,1.056-.59,2.756-1.663,5.35-3.19,7.71-.309,.478-.286,1.099,.059,1.552l2.257,2.964c-1.376,1.751-2.952,3.327-4.703,4.703l-2.966-2.257c-.453-.345-1.074-.368-1.553-.059-2.359,1.527-4.952,2.601-7.709,3.191-.557,.119-.979,.575-1.056,1.14l-.5,3.692c-2.21,.266-4.44,.266-6.652,0l-.5-3.692c-.077-.565-.499-1.02-1.056-1.14-2.757-.591-5.351-1.664-7.71-3.19-.478-.309-1.099-.286-1.552,.059l-2.964,2.256c-1.751-1.375-3.327-2.952-4.703-4.703l2.257-2.965c.345-.453,.369-1.074,.059-1.553-1.527-2.36-2.601-4.954-3.191-7.709-.119-.557-.575-.979-1.14-1.056l-3.692-.5c-.266-2.211-.266-4.44,0-6.652l3.692-.5c.565-.077,1.02-.499,1.14-1.056,.59-2.757,1.664-5.351,3.19-7.71,.309-.478,.286-1.099-.059-1.552l-2.257-2.964c1.375-1.75,2.951-3.327,4.703-4.703l2.965,2.257c.453,.345,1.074,.369,1.552,.059,2.359-1.527,4.953-2.6,7.709-3.191,.557-.119,.979-.575,1.056-1.14l.5-3.693c2.21-.266,4.44-.266,6.651,0l.5,3.693c.077,.565,.499,1.02,1.056,1.14,2.757,.59,5.35,1.664,7.709,3.191,.478,.31,1.099,.286,1.553-.059l2.966-2.258c1.751,1.376,3.327,2.952,4.703,4.703l-2.258,2.966c-.345,.453-.369,1.074-.059,1.553,1.527,2.359,2.601,4.953,3.191,7.709,.119,.557,.575,.979,1.14,1.056l3.693,.5c.266,2.21,.266,4.44,0,6.651Zm13.59,.537c-2.13,0-3.863-1.733-3.863-3.862s1.733-3.863,3.863-3.863,3.863,1.733,3.863,3.863-1.733,3.862-3.863,3.862Z"/><text x="0" y="115" fill="#000000" font-size="5px" font-weight="bold" font-family="'Helvetica Neue', Helvetica, Arial-Unicode, Arial, Sans-serif">Created by jamzuri</text><text x="0" y="120" fill="#000000" font-size="5px" font-weight="bold" font-family="'Helvetica Neue', Helvetica, Arial-Unicode, Arial, Sans-serif">from the Noun Project</text></svg>