<svg xmlns="http://www.w3.org/2000/svg" xmlns:xlink="http://www.w3.org/1999/xlink" version="1.1" x="0px" y="0px" viewBox="0 0 512 640" style="enable-background:new 0 0 512 512;" xml:space="preserve"><g><g><g><path d="M391,426H90.333C60.374,426,36,401.626,36,371.667V216c0-5.523,4.478-10,10-10s10,4.477,10,10v155.667     C56,390.598,71.401,406,90.333,406H391c8.272,0,15-6.729,15-15V271c0-8.271-6.728-15-15-15H126.001c-5.522,0-10-4.477-10-10     s4.478-10,10-10H391c19.299,0,35,15.701,35,35v120C426,410.299,410.299,426,391,426z"/></g><g><path d="M126,256H76c-22.056,0-40-17.944-40-40s17.944-40,40-40h50c5.523,0,10,4.477,10,10s-4.477,10-10,10H76     c-11.028,0-20,8.972-20,20s8.972,20,20,20h50c5.523,0,10,4.477,10,10S131.523,256,126,256z"/></g><g><path d="M436,496H156c-22.056,0-40-17.944-40-40v-40c0-5.523,4.478-10,10-10c5.523,0,10,4.477,10,10v40     c0,11.028,8.972,20,20,20h280c11.028,0,20-8.972,20-20V110.142L381.857,36H156c-11.028,0-20,8.972-20,20v189.999     c0,5.523-4.477,10-10,10c-5.522,0-10-4.477-10-10V56c0-22.056,17.944-40,40-40h230c2.652,0,5.195,1.054,7.071,2.929l80,80     c1.875,1.875,2.929,4.419,2.929,7.071v350C476,478.056,458.056,496,436,496z"/></g><g><path d="M456,116h-70c-5.522,0-10-4.477-10-10V36c0-5.523,4.478-10,10-10s10,4.477,10,10v60h60     c5.522,0,10,4.477,10,10S461.522,116,456,116z"/></g><g><path d="M256,106h-80c-5.523,0-10-4.477-10-10s4.477-10,10-10h80c5.522,0,10,4.477,10,10S261.522,106,256,106z"/></g><g><path d="M336,146H176c-5.523,0-10-4.477-10-10s4.477-10,10-10h160c5.522,0,10,4.477,10,10S341.522,146,336,146z     "/></g><g><path d="M336,186H176c-5.523,0-10-4.477-10-10s4.477-10,10-10h160c5.522,0,10,4.477,10,10S341.522,186,336,186z     "/></g><g><path d="M231,376c-19.299,0-35-15.701-35-35v-30c0-19.299,15.701-35,35-35s35,15.701,35,35v30     C266,360.299,250.299,376,231,376z M231,296c-8.271,0-15,6.729-15,15v30c0,8.271,6.729,15,15,15s15-6.729,15-15v-30     C246,302.729,239.271,296,231,296z"/></g><g><path d="M263.253,385.615l-35-10c-5.311-1.517-8.386-7.052-6.868-12.362c1.518-5.31,7.052-8.385,12.362-6.868     l35,10c5.31,1.517,8.386,7.052,6.868,12.362C274.102,384.043,268.577,387.136,263.253,385.615z"/></g><g><path d="M356,376h-50c-5.522,0-10-4.477-10-10v-80c0-5.523,4.478-10,10-10s10,4.477,10,10v70h40     c5.522,0,10,4.477,10,10S361.522,376,356,376z"/></g><g><path d="M146,376h-30c-5.522,0-10-4.477-10-10s4.478-10,10-10h30c5.514,0,10-4.486,10-10s-4.486-10-10-10h-10     c-16.542,0-30-13.458-30-30s13.458-30,30-30h30c5.523,0,10,4.477,10,10s-4.477,10-10,10h-30c-5.514,0-10,4.486-10,10     s4.486,10,10,10h10c16.542,0,30,13.458,30,30S162.542,376,146,376z"/></g></g></g><text x="0" y="527" fill="#000000" font-size="5px" font-weight="bold" font-family="'Helvetica Neue', Helvetica, Arial-Unicode, Arial, Sans-serif">Created by Icon Market</text><text x="0" y="532" fill="#000000" font-size="5px" font-weight="bold" font-family="'Helvetica Neue', Helvetica, Arial-Unicode, Arial, Sans-serif">from the Noun Project</text></svg>