<svg xmlns="http://www.w3.org/2000/svg" data-name="Layer 1" viewBox="0 0 128 160" x="0px" y="0px"><title>miscellaneous 183_expandline</title><path d="M97.9961,76c-1.7056,0-3.1636-2.6533-4.4302-6H89.3052c1.9453,5.6113,4.3052,10,8.6909,10,4.3506,0,6.7695-4.5127,8.6894-10h-4.2558C101.1626,73.3467,99.7031,76,97.9961,76Z"/><path d="M46.9956,52c1.7065,0,3.1655,2.6533,4.4326,6h4.2554c-1.9194-5.4873-4.3379-10-8.688-10-4.3852,0-6.7446,4.3887-8.6894,10h4.2607C43.8335,54.6533,45.291,52,46.9956,52Z"/><path d="M115,52a2,2,0,0,0,0-4c-4.3862,0-6.7461,4.3887-8.6914,10h4.2607C111.8364,54.6533,113.2949,52,115,52Z"/><path d="M80.9971,52c1.7055,0,3.164,2.6533,4.4306,6h4.2608c-1.9453-5.6113-4.3052-10-8.6914-10-4.3496,0-6.7686,4.5127-8.688,10h4.2558C77.832,54.6533,79.2905,52,80.9971,52Z"/><path d="M13,52c1.7051,0,3.1631,2.6533,4.4297,6h4.2612C19.7456,52.3887,17.3857,48,13,48a2,2,0,0,0,0,4Z"/><path d="M63.9956,76c-1.7046,0-3.1626-2.6533-4.4292-6H55.3057c1.9453,5.6113,4.3047,10,8.6899,10,4.3862,0,6.7456-4.3887,8.6909-10H68.4263C67.1597,73.3467,65.7012,76,63.9956,76Z"/><path d="M30,76c-1.7061,0-3.165-2.6533-4.4316-6H21.313C23.2324,75.4873,25.6509,80,30,80c4.3857,0,6.7456-4.3887,8.6904-10H34.4297C33.1631,73.3467,31.7051,76,30,76Z"/><path d="M126.9668,62.249l-5.4312-3A1.99513,1.99513,0,0,0,118.8447,62H2a2,2,0,0,0,0,4H118.8447a1.99183,1.99183,0,0,0-.0263,1.9668,2.02243,2.02243,0,0,0,2.7172.7842l5.4312-3a2.00034,2.00034,0,0,0,0-3.502Z"/><text x="0" y="143" fill="#000000" font-size="5px" font-weight="bold" font-family="'Helvetica Neue', Helvetica, Arial-Unicode, Arial, Sans-serif">Created by WEBTECHOPS LLP</text><text x="0" y="148" fill="#000000" font-size="5px" font-weight="bold" font-family="'Helvetica Neue', Helvetica, Arial-Unicode, Arial, Sans-serif">from the Noun Project</text></svg>