<svg xmlns="http://www.w3.org/2000/svg" xmlns:xlink="http://www.w3.org/1999/xlink" version="1.1" x="0px" y="0px" viewBox="-17.5 -17.5 100 125" enable-background="new -17.5 -17.5 100 100" xml:space="preserve"><style>
        .border {
            border-width: 1px /* Adjust this value to make the borders thinner */
        }
    </style><path class="border" d="M7.303,8.415c-1.104,0-2-0.896-2-2V-15.5c0-1.104,0.896-2,2-2s2,0.896,2,2V6.415C9.303,7.519,8.407,8.415,7.303,8.415z"/><path class="border" d="M67.901,82.5H-2.901c-1.104,0-2-0.896-2-2V62.945c0-1.104,0.896-2,2-2s2,0.896,2,2V78.5h66.803V62.945c0-1.104,0.896-2,2-2  s2,0.896,2,2V80.5C69.901,81.604,69.006,82.5,67.901,82.5z"/><path d="M67.901,37.593c-1.104,0-2-0.896-2-2V8.415H45.986c-1.104,0-2-0.896-2-2V-13.5H-0.901v49.093c0,1.104-0.896,2-2,2  s-2-0.896-2-2V-15.5c0-1.104,0.896-2,2-2h48.888c1.104,0,2,0.896,2,2V4.415h19.915c1.104,0,2,0.896,2,2v29.178  C69.901,36.697,69.006,37.593,67.901,37.593z"/><path d="M67.901,8.415c-0.512,0-1.023-0.195-1.414-0.586L44.572-14.086c-0.781-0.781-0.781-2.047,0-2.828  c0.781-0.781,2.047-0.781,2.828,0L69.315,5c0.781,0.781,0.781,2.047,0,2.828C68.925,8.219,68.413,8.415,67.901,8.415z"/><path d="M63.199,65.73H1.801c-9.077,0-16.462-7.385-16.462-16.461c0-9.077,7.385-16.462,16.462-16.462h61.398  c9.077,0,16.462,7.385,16.462,16.462C79.661,58.346,72.276,65.73,63.199,65.73z M1.801,36.808c-6.872,0-12.462,5.591-12.462,12.462  S-5.071,61.73,1.801,61.73h61.398c6.871,0,12.462-5.59,12.462-12.461S70.07,36.808,63.199,36.808H1.801z"/><path class="border" d="M30.988,40.059h-11.98c-0.552,0-1,0.447-1,1v1.809c0,0.553,0.448,1,1,1h3.917v13.602c0,0.553,0.448,1,1,1h2.137  c0.552,0,1-0.447,1-1V43.867h3.927c0.553,0,1-0.447,1-1v-1.809C31.988,40.506,31.541,40.059,30.988,40.059z"/><path class="border" d="M43.801,48.326l-2.736-1.639c-0.58-0.322-1.058-0.676-1.418-1.049c-0.247-0.256-0.363-0.566-0.363-0.975  c0-0.383,0.151-0.684,0.491-0.975c0.377-0.322,0.885-0.479,1.555-0.479c1.011,0,2.075,0.211,3.16,0.631  c0.31,0.119,0.654,0.078,0.926-0.109c0.272-0.186,0.435-0.494,0.435-0.824V41.08c0-0.439-0.285-0.826-0.704-0.955  c-1.183-0.367-2.424-0.553-3.689-0.553c-2.082,0-3.669,0.521-4.715,1.551c-1.051,1.033-1.584,2.32-1.584,3.826  c0,2.057,1.133,3.768,3.38,5.098l2.161,1.244c1.133,0.66,1.608,1.115,1.809,1.381c0.242,0.322,0.359,0.648,0.359,1.002  c0,0.291-0.08,0.555-0.245,0.807c-0.16,0.246-0.406,0.438-0.749,0.582c-0.409,0.172-0.826,0.254-1.273,0.254  c-1.225,0-2.632-0.373-4.181-1.109c-0.31-0.146-0.674-0.125-0.964,0.059s-0.466,0.502-0.466,0.846v2.01  c0,0.422,0.265,0.797,0.662,0.941c1.02,0.365,1.83,0.604,2.477,0.723c0.646,0.121,1.332,0.182,2.038,0.182  c2.299,0,4.029-0.557,5.143-1.652c1.118-1.1,1.685-2.439,1.685-3.98C46.992,51.307,45.924,49.625,43.801,48.326z"/><text x="-17.5" y="97.5" fill="#000000" font-size="5px" font-weight="bold" font-family="'Helvetica Neue', Helvetica, Arial-Unicode, Arial, Sans-serif">Created by Vectplus</text><text x="-17.5" y="102.5" fill="#000000" font-size="5px" font-weight="bold" font-family="'Helvetica Neue', Helvetica, Arial-Unicode, Arial, Sans-serif">from the Noun Project</text></svg>