<svg xmlns="http://www.w3.org/2000/svg" viewBox="0 -6 100 125" x="0px" y="0px"><path d="M89.28,63c-.06,0-7.72-2.76-12.06-4.08a4.34,4.34,0,0,0-2.35.16,72.27,72.27,0,0,0-9.48,5.12A1.5,1.5,0,0,0,67,66.77a66.38,66.38,0,0,1,9-4.87,1.43,1.43,0,0,1,.56,0c4.35,1.37,11.64,4,11.71,4a1.5,1.5,0,1,0,1-2.83Z"/><path d="M93.72,48.25,81.47,44.82a14.4,14.4,0,0,1-4.32-3.31,17,17,0,0,0-3.22-2.42,1.5,1.5,0,0,0-1.56,2.56A14.73,14.73,0,0,1,75,43.57a17.62,17.62,0,0,0,5.32,4l.24.09,12.38,3.47a1.44,1.44,0,0,0,.41,0A1.5,1.5,0,0,0,93.72,48.25Z"/><path d="M75.4,16.86A1.5,1.5,0,0,0,73,15c0,.06-4.87,6.33-7.53,10.09a4.21,4.21,0,0,0-.65,2.41,68.35,68.35,0,0,0,1.7,9.63c.73,3,1.83,6.89,3,8.45s1.17,1.9,1.17,2c-.83,1.31-2.18.34-3.11-.94a1.5,1.5,0,0,0-2.43,1.76c2.16,2.94,4.95,3.63,7.13,1.86,2.7-2.35.93-4.72-.36-6.44-1.4-1.88-3.79-12-4.11-16.51a1.48,1.48,0,0,1,.15-.54C70.63,23.06,75.35,16.92,75.4,16.86Z"/><path d="M63.3,7.53a1.5,1.5,0,0,0-2.5-1.66l-7,10.59a14.53,14.53,0,0,1-4.49,3.08,22,22,0,0,0-4.88,3.77,1.5,1.5,0,0,0,2.09,2.15,19.25,19.25,0,0,1,4.08-3.21A17.67,17.67,0,0,0,56,18.43a1.56,1.56,0,0,0,.16-.2Z"/><path d="M21.53,16.13c0,.05,4.62,6.78,7.35,10.4a4.38,4.38,0,0,0,2,1.24c4.18,1,15.45,2.21,18.66,1.12,1.74-.59,2.16-.53,2.23-.51,1.38,1.76-1.77,2.82-3.67,3.08-2.24.39-7.3,1.26-5.51,3.94a1.5,1.5,0,0,0,2.12.13c.58-.51,2.43-.85,3.92-1.12,3.29-.42,5.42-2,6-3.32a3.88,3.88,0,0,0,.17-3.4c-1.4-3.29-4.2-2.34-6.24-1.64-2.22.75-12.58-.1-17-1.19a1.52,1.52,0,0,1-.47-.31c-2.72-3.66-7.09-10-7.14-10.11a1.5,1.5,0,1,0-2.47,1.69Z"/><path d="M20.36,32.29l-8-10.08A1.5,1.5,0,0,0,10,24.07l7.9,10a14.68,14.68,0,0,1,1.55,5.21,19.49,19.49,0,0,0,1.72,5.09,1.52,1.52,0,0,0,1.36.87,1.5,1.5,0,0,0,1.36-2.13,17.38,17.38,0,0,1-1.47-4.22A16.67,16.67,0,0,0,20.36,32.29Z"/><path d="M19.28,61a4.4,4.4,0,0,0,1.8-1.52c2.27-3.65,6.87-14,6.82-17.4a5.34,5.34,0,0,1,.21-2.28C30,39.08,30.25,41.6,30,43.59c-.37,2.79-1,6,.86,7.48,1.47,1.21,3.51.53,4.18.31l1.61-.55a1.5,1.5,0,0,0-1-2.84l-1.61.54a2.55,2.55,0,0,1-1.31.22c-.43-.65.05-3.45.21-4.77.59-4.46-1.27-7.48-4.57-7.32-3.57.31-3.53,3.27-3.49,5.43,0,2.34-4,11.93-6.38,15.76a1.5,1.5,0,0,1-.44.35c-4.32,1.46-11.74,3.64-11.82,3.66a1.5,1.5,0,0,0,.85,2.88S15,62.44,19.28,61Z"/><path d="M31.39,70.92a9.94,9.94,0,0,1-1.92-.1,17.67,17.67,0,0,0-6.66-.11,1.83,1.83,0,0,0-.25.06l-12,4.48a1.5,1.5,0,0,0,1,2.81l11.93-4.43a14.59,14.59,0,0,1,5.44.14,12.74,12.74,0,0,0,2.5.15A1.5,1.5,0,0,0,31.39,70.92Z"/><path d="M63.05,41a3,3,0,0,0-4.39.11c-.16-2.23-1.25-4.47-3.71-4.44a3.37,3.37,0,0,0-3.06,2c-.31-2-1.62-3.58-3.7-3.55-2.52,0-3.41,2.41-3.41,4.85a3.57,3.57,0,0,0-3.66-2.14A3.12,3.12,0,0,0,38.89,39c-1.34,1.62-1,4.34-.76,6.74.13,1.32.26,2.3.5,4s.54,3.82.73,5.85c.25,2.6.24,4.93.26,7.11a2.56,2.56,0,0,1-.2,1.32c-.75.21-3.26-1.1-4.47-1.67-4.05-1.94-7.51-1.11-8.37,2.08-.81,3.49,2,4.36,4.08,5,2.24.7,10.12,7.47,13,10.94a1.55,1.55,0,0,1,.19.53c0,4.55-.16,12.29-.17,12.37a1.5,1.5,0,0,0,3,.08c0-.07.24-8.19.16-12.73A4.33,4.33,0,0,0,46,78.44c-2.77-3.3-11.2-10.87-14.43-11.87-1.76-.55-2.07-.84-2.11-.91a1.28,1.28,0,0,1,.06-.55c.41-1.29,2.56-.81,4.16,0,2.55,1.22,5.44,2.78,7.38,1.49s1.55-3.36,1.58-4.49a81.43,81.43,0,0,0-1-12.75c-.24-1.64-.36-2.57-.49-3.86s-.44-4.11.09-4.5c1-.71,1.52,1.83,1.93,5.08,1.08,9,1.62,9.85,2.42,10.42a1.68,1.68,0,0,0,1.35.29c1.38-.3,1.35-1.75,1.33-2.92,0-.89-.08-2-.15-3.4-.21-3.11-.35-8.73-.3-10.32,0-1.42.24-1.81.38-1.9s.79,0,.9,2.18c0,.53.58,10,.71,12.72a10.79,10.79,0,0,0,.11,1.59,1.76,1.76,0,0,0,2.91,1.18c.69-.61.9-1.44,1.17-6.47.13-2.5.15-4.35.16-5.69,0-.59,0-1.1,0-1.5,0-1.41.48-2.5.81-2.5s.67,0,.8,2.7c.14,3,.38,8.2.4,9.64,0,3.08.13,3.92.85,4.54a1.7,1.7,0,0,0,1.35.39c1.38-.2,1.53-1.56,1.6-2.14s.19-3.63.24-5.89c.05-1.69,0-4.69.72-5.8a6.19,6.19,0,0,1,.48,2.67c.1,1.88,0,4.57-.06,8-.1,3.64.2,7.69,0,11.18a26.66,26.66,0,0,1-1.9,9,17.8,17.8,0,0,0-2.17,6.3,2.26,2.26,0,0,0,0,.26l.53,12.84a1.5,1.5,0,0,0,3-.12l-.53-12.72A14.58,14.58,0,0,1,62,75.4C62.9,73.82,64,70,64.29,65.19c.24-3.66-.06-7.61,0-11.32C64.53,46.2,64.62,42.69,63.05,41Z"/><text x="0" y="115" fill="#000000" font-size="5px" font-weight="bold" font-family="'Helvetica Neue', Helvetica, Arial-Unicode, Arial, Sans-serif">Created by Fran Couto</text><text x="0" y="120" fill="#000000" font-size="5px" font-weight="bold" font-family="'Helvetica Neue', Helvetica, Arial-Unicode, Arial, Sans-serif">from the Noun Project</text></svg>