<svg xmlns="http://www.w3.org/2000/svg" data-name="25 Critical thinking" viewBox="0 0 64 80" x="0px" y="0px"><g><path d="M25.445,25.832A1,1,0,0,0,27,25V22h3a3,3,0,0,0,3-3V3a3,3,0,0,0-3-3H8A3,3,0,0,0,5,3V19a3,3,0,0,0,3,3H19.7ZM7,19V3A1,1,0,0,1,8,2H30a1,1,0,0,1,1,1V19a1,1,0,0,1-1,1H26a1,1,0,0,0-1,1v2.132l-4.445-2.964A1.006,1.006,0,0,0,20,20H8A1,1,0,0,1,7,19Z"/><path d="M58.66,38.14,55,31.734V30.5A22.434,22.434,0,0,0,36.145,8.232a1,1,0,0,0-.29,1.979A20.422,20.422,0,0,1,53,30.5V32a1,1,0,0,0,.132.5l3.791,6.635a.58.58,0,0,1-.5.869H54a1,1,0,0,0-1,1v8a3,3,0,0,1-3,3H44a1,1,0,0,0-1,1v9H19.121l.537-4.7a23.773,23.773,0,0,0-2.84-14.28C15.076,39.873,13,35.056,13,30a20.094,20.094,0,0,1,.577-4.763,1,1,0,1,0-1.943-.474A22.077,22.077,0,0,0,11,30c0,5.481,2.212,10.635,4.068,13.991a21.794,21.794,0,0,1,2.6,13.086l-.665,5.81A1,1,0,0,0,18,64H44a1,1,0,0,0,1-1V54h5a5.006,5.006,0,0,0,5-5V42h1.42a2.58,2.58,0,0,0,2.24-3.86Z"/><path d="M14.717,4.062A4,4,0,0,0,10,8a1,1,0,0,0,2,0,2,2,0,0,1,2.371-1.967,2.025,2.025,0,0,1,1.6,1.6,2,2,0,0,1-1,2.124A3.647,3.647,0,0,0,13,13a.963.963,0,0,0,1,.956,1.037,1.037,0,0,0,1-1.043,1.647,1.647,0,0,1,.93-1.408,4,4,0,0,0-1.213-7.443Z"/><circle cx="14" cy="17" r="1"/><path d="M21,9a1,1,0,0,0,1-1,2,2,0,0,1,2.371-1.967,2.025,2.025,0,0,1,1.6,1.6,2,2,0,0,1-1,2.124A3.647,3.647,0,0,0,23,13a.963.963,0,0,0,1,.956,1.037,1.037,0,0,0,1-1.043,1.647,1.647,0,0,1,.93-1.408A4,4,0,1,0,20,8,1,1,0,0,0,21,9Z"/><circle cx="24" cy="17" r="1"/><path d="M33,42a4,4,0,1,0-4-4A4,4,0,0,0,33,42Zm0-6a2,2,0,1,1-2,2A2,2,0,0,1,33,36Z"/><path d="M42.9,30.929,40.071,28.1a1,1,0,0,0-1.322-.081l-2.2,1.714c-.074-.032-.147-.063-.22-.092l-.341-2.764A1,1,0,0,0,35,26H31a1,1,0,0,0-.992.878l-.341,2.764c-.073.029-.146.06-.22.092l-2.2-1.714a1,1,0,0,0-1.322.081L23.1,30.929a1,1,0,1,0,1.414,1.414l2.2-2.2L28.7,31.69a1,1,0,0,0,1.076.1,7.042,7.042,0,0,1,1.108-.464,1,1,0,0,0,.69-.831l.308-2.5h2.23l.308,2.5a1,1,0,0,0,.69.831,7.042,7.042,0,0,1,1.108.464,1,1,0,0,0,1.076-.1l1.985-1.549,1.577,1.577L39.31,33.7a1,1,0,0,0-.1,1.076,7.042,7.042,0,0,1,.464,1.108,1,1,0,0,0,.831.69L43,36.885v2.23l-2.495.308a1,1,0,0,0,.121,1.992.856.856,0,0,0,.123-.008l3.373-.415A1,1,0,0,0,45,40V36a1,1,0,0,0-.878-.992l-2.764-.341c-.029-.073-.06-.146-.092-.22l1.714-2.2A1,1,0,0,0,42.9,30.929Z"/><path d="M23.1,45.071,25.929,47.9a1,1,0,0,0,1.322.081l2.2-1.714c.074.032.147.063.22.092l.341,2.764A1,1,0,0,0,31,50h4a1,1,0,0,0,.992-.878l.341-2.764c.073-.029.146-.06.22-.092l2.2,1.714a1,1,0,0,0,1.322-.081L42.9,45.071a1,1,0,0,0-1.414-1.414l-2.2,2.2L37.3,44.31a1,1,0,0,0-1.076-.1,7.042,7.042,0,0,1-1.108.464,1,1,0,0,0-.69.831L34.115,48h-2.23l-.308-2.495a1,1,0,0,0-.69-.831,7.042,7.042,0,0,1-1.108-.464,1,1,0,0,0-1.076.1l-1.985,1.549-1.577-1.577L26.69,42.3a1,1,0,0,0,.1-1.076,7.042,7.042,0,0,1-.464-1.108,1,1,0,0,0-.831-.69L23,39.115v-2.23l2.5-.308a1,1,0,0,0,.87-1.114.988.988,0,0,0-1.114-.87l-3.373.415A1,1,0,0,0,21,36v4a1,1,0,0,0,.878.992l2.764.341c.029.073.06.146.092.22l-1.714,2.2A1,1,0,0,0,23.1,45.071Z"/></g><text x="0" y="79" fill="#000000" font-size="5px" font-weight="bold" font-family="'Helvetica Neue', Helvetica, Arial-Unicode, Arial, Sans-serif">Created by Berkah Icon</text><text x="0" y="84" fill="#000000" font-size="5px" font-weight="bold" font-family="'Helvetica Neue', Helvetica, Arial-Unicode, Arial, Sans-serif">from the Noun Project</text></svg>