<svg xmlns="http://www.w3.org/2000/svg" xmlns:xlink="http://www.w3.org/1999/xlink" version="1.1" x="0px" y="0px" viewBox="0 0 500 625" enable-background="new 0 0 500 500" xml:space="preserve"><g><g><g><path d="M426.1,250.6c0,34,0,67.9,0,101.9c0,7.5,0,15,0,22.5c0,1.7,0,3.5,0,5.2c0,0.2,0,0.4,0,0.6     c0,0.7,0.2,5.3-0.3,5.6c0.2-0.1,0.8-4.3,0.2-1.2c-0.3,1.3-0.5,2.7-0.9,4c-0.4,1.7-1,3.4-1.6,5.1c-1.2,3.8,0.5-1.2,0.5-1.1     c0.1,0.2-1,2-1.1,2.4c-0.8,1.6-1.7,3.1-2.6,4.6c-0.6,0.9-1.4,1.8-1.8,2.7c-1,2.1,2.7-3,0.3-0.4c-1,1-6.1,7.7-7.5,7.3     c0.1,0,3.5-2.4,0.9-0.8c-0.9,0.6-1.8,1.2-2.7,1.8c-1.7,1-3.4,1.9-5.2,2.8c-3.5,1.8,1.1-0.5,1.1-0.4c0,0.1-2.2,0.8-2.5,0.9     c-1.9,0.6-3.9,1.2-5.8,1.6c-0.9,0.2-1.8,0.3-2.7,0.5c-2.7,0.5,4-0.3,1.2-0.2c-1.6,0-3.3,0.2-4.9,0.2c-0.5,0-1,0-1.5,0     c-28.1,0.1-56.1,0-84.2,0c-43.7,0-87.4,0-131.1,0c-15.9,0-31.9,0-47.8,0c-4.4,0-8.7,0-13.1,0c-1,0-2.1,0-3.1,0     c-0.2,0-0.4,0-0.6,0c0,0-0.1,0-0.1,0c-0.9,0-1.9,0-2.8-0.1c-0.7,0-1.4-0.1-2.1-0.1c-1.6-0.1-0.9,0,1.9,0.3     c-1.4,1.1-8.8-2.1-10.4-2.6c-3.8-1.2,1.2,0.5,1.1,0.5c-0.2,0.1-2-1-2.4-1.1c-2-1-3.9-2.1-5.7-3.3c0.1,0.1-2.2-1.3-2.2-1.5     c0,0,3.2,2.8,1,0.7c-1.3-1.2-2.6-2.3-3.8-3.6c-0.5-0.5-3.6-3.3-3.5-3.9c-0.2,0.6,2.4,3.6,0.4,0.4c-0.6-0.9-1.2-1.8-1.8-2.8     c-0.9-1.5-1.7-3.1-2.5-4.7c-1.8-3.5,0.5,1.1,0.4,1.1c-0.1,0-0.8-2.2-0.9-2.5c-0.6-1.9-1.2-3.9-1.6-5.8c-0.2-0.9-0.3-1.8-0.5-2.7     c-0.5-2.5,0.3,4.3,0.1,0.5c-0.1-1.7-0.2-3.4-0.2-5.2c0-9.6,0-19.3,0-28.9c0-41.2,0-82.4,0-123.6c0-33.6,0-67.2,0-100.7     c0-2,0-4,0-6c0-1.4,0.1-2.8,0.2-4.2c0.1-3.1-0.5,0.9-0.3,1.2c-0.1-0.2,0.5-2.7,0.5-2.7c0.4-1.8,0.8-3.5,1.3-5.2     c0.3-0.9,0.6-1.7,0.8-2.5c1.3-4.3-2,3.8,0-0.1c0.6-1.1,4.1-9.1,5.4-9c0,0-2.8,3.2-0.7,1c0.6-0.6,1.1-1.3,1.7-2     c1.5-1.6,3.1-3,4.7-4.5c2.2-2.1-1,0.7-1,0.7c0-0.2,2.2-1.6,2.2-1.5c1.5-1,3-1.9,4.5-2.7c0.8-0.4,1.6-0.8,2.4-1.2     c3.5-1.8-1.1,0.5-1.1,0.4c0.1-0.6,5.6-1.8,6.4-2c0.9-0.2,4.6-1.6,5.3-1.1c-0.3-0.2-4.3,0.4-1.2,0.3c0.9,0,1.9-0.1,2.8-0.1     c0.7,0,1.3,0,2,0c4.6,0,9.2,0,13.8,0c39.1,0,78.1,0,117.2,0c3.1,0,6.1,0,9.2,0c10.5,0,20.5-9.2,20-20c-0.5-10.8-8.8-20-20-20     c-34.4,0-68.7,0-103.1,0c-12.5,0-25.1-0.1-37.6,0c-40,0.4-72.2,31.5-75.2,71.1c-0.6,8.2-0.2,16.6-0.2,24.8c0,17.8,0,35.6,0,53.3     c0,44.4,0,88.9,0,133.3c0,14.7,0,29.4,0,44.1c0,17.6,2,35,12.3,50.1c15.2,22.4,39.2,34.2,66,34.2c11.2,0,22.4,0,33.6,0     c42.8,0,85.7,0,128.5,0c35.6,0,71.2,0,106.7,0c16.4,0,32.2-1.5,46.9-9.8c16.8-9.5,29.3-25.6,34.9-43.9c2.6-8.4,3.1-17.3,3.1-26.1     c0-38.4,0-76.8,0-115.2c0-3.5,0-6.9,0-10.4c0-10.5-9.2-20.5-20-20C435.3,231.1,426.1,239.4,426.1,250.6L426.1,250.6z"/></g></g><g><g><g><path d="M320.1,83.9c31.4,0,62.7,0,94.1,0c2.4,0,4.8,0,7.1,0c0.6,0,1.2,0,1.7,0c0.1,0,0.2,0,0.3,0      c3.9-0.2-3.7-0.8-0.1,0c3,0.7-1.5,0.2-1.2-0.6c-0.1,0.2,2.5,1,2.2,1.3c-0.3,0.3-3.6-3.4-1.2-0.6c0,0-2.3-3.4-1.2-1.6      c0.1,0.2,0.2,0.4,0.3,0.5c0.8,1.5,0.8,1.5,0.1-0.1c-0.2-0.4-0.3-0.8-0.5-1.2c0.2,0.6,0.4,1.2,0.6,1.9c-0.8,2,0.1-2.5-0.2-2.1      c-0.4,0.6,0.1,0.9,0,1.4c0,1.2,0,2.4,0,3.7c0,17.3,0,34.6,0,51.9c0,15.2,0,30.4,0,45.7c0,10.5,9.2,20.5,20,20      c10.8-0.5,20-8.8,20-20c0-32,0-64,0-96.1c0-9.6-1-19.2-7-27.3c-8.6-11.6-20.6-16.8-34.7-16.8c-17.4,0-34.8,0-52.2,0      c-16,0-32.1,0-48.1,0c-10.5,0-20.5,9.2-20,20C300.6,74.7,308.9,83.9,320.1,83.9L320.1,83.9z"/></g></g><g><g><path d="M421.5,56.8c-28.6,28.6-57.1,57.1-85.7,85.7c-23.7,23.7-47.5,47.3-71.1,71.2      c-17,17.2-33.9,34.4-50.9,51.6c-7.4,7.5-8,20.9,0,28.3c7.9,7.3,20.4,8,28.3,0c22.8-23.2,45.5-46.5,68.5-69.5      c35-35,70.1-70.1,105.1-105.1c11.3-11.3,22.6-22.6,34-34c7.4-7.4,8-21,0-28.3C441.8,49.5,429.4,48.9,421.5,56.8L421.5,56.8z"/></g></g></g></g><text x="0" y="515" fill="#000000" font-size="5px" font-weight="bold" font-family="'Helvetica Neue', Helvetica, Arial-Unicode, Arial, Sans-serif">Created by Neha Tyagi</text><text x="0" y="520" fill="#000000" font-size="5px" font-weight="bold" font-family="'Helvetica Neue', Helvetica, Arial-Unicode, Arial, Sans-serif">from the Noun Project</text></svg>