<svg xmlns="http://www.w3.org/2000/svg" xmlns:xlink="http://www.w3.org/1999/xlink" version="1.1" x="0px" y="0px" viewBox="0 0 64 80" style="enable-background:new 0 0 64 64;" xml:space="preserve"><g><g><path d="M27.7050171,16.8754272C27.024538,8.940836,17.3768177,4.9577651,11.3343019,10.0558062    c-6.0818405,4.8145027-4.2669716,15.0777025,3.3631372,17.3578568    C21.283823,29.6245842,28.5131645,23.9235039,27.7050171,16.8754272z M17.7041016,25.869751    c-7.5245552-0.0160599-10.8774328-9.5448532-5.1151552-14.2586479c3.9227896-3.4030342,10.523387-1.8253632,12.5051317,3.0275269    C27.4437847,19.8327427,23.3044147,25.9920521,17.7041016,25.869751z"/><path d="M20.9970703,15.2935781l-4.2929688,4.2929697l-2.2929688-2.2929688    c-0.9261627-0.9202785-2.3362417,0.4851589-1.4140139,1.4141026c-0.0000486-0.0000401,2.9999514,2.9999599,2.9999514,2.9999599    c0.1953125,0.1953125,0.4511719,0.2929688,0.7070313,0.2929688s0.5117188-0.0976563,0.7070313-0.2929688l5-5    C23.3297272,15.7811546,21.9275627,14.3713722,20.9970703,15.2935781z"/><path d="M61,11.0006094H31.8861694C24.4677544-4.0730863,2.2588456,1.0221988,2.0000155,17.710722    C2,21.3238525,3.203125,24.7320557,5.4804688,27.5675049c2.0402832,2.5336914,3.3311157,5.7360229,3.7406006,9.2515259    c-0.0047169,0.0166016,0.0064163,0.0312347,0.006897,0.0477295c0.1936188,1.5493088,0.1021309,4.6763725,0.1216536,6.2637596    c-0.0000105,1.7450294,1.2767229,3.1867409,2.9404192,3.4621315v1.9978027    c-0.0614147,2.9039459,2.4969454,5.4718018,5.4102001,5.4101105c2.9882374,0.0000458,5.419878-2.426712,5.419878-5.4101105    V46.604126c1.650713-0.2805824,2.9520626-1.7905846,2.9394264-3.4736633    c0.0000267,0.0000305,0.0000267-4.2099304,0.0000267-4.2099304c0-4.1948242,1.3994141-8.2519531,3.9433594-11.4282227    c3.2379761-4.0089302,4.249836-9.5676708,2.6845551-14.4917002H60v47H16v-3.0004883    c-0.0153322-1.3143082-1.9828348-1.3122597-1.9999933,0.000042C14,57.0001221,14,61.0006104,14,61.0006104    c0,0.5522461,0.4472656,1,1,1h46c0.5527344,0,1-0.4477539,1-1v-49C62,11.4483633,61.5527344,11.0006094,61,11.0006094z     M11.3496094,43.1304932c-0.0098419-1.0520172,0.0313559-4.3044014-0.0429077-5.3046875h12.798584    c-0.0810032,0.7302055-0.0340919,4.4995003-0.0457268,5.3047028c0.0000114,0.8383636-0.6777229,1.5200043-1.5097542,1.5200043    h-0.4296875h-8.8300781C12.3053389,44.7736588,11.3547049,44.1970482,11.3496094,43.1304932z M17.7001953,52.0006104    c-1.8405132,0.038517-3.4473658-1.5784492-3.4101276-3.410183c-0.0000286,0.0000267-0.0000286-1.9399147-0.0000286-1.9399147    h6.8300781v1.9399414C21.1201172,50.4708252,19.5859375,52.0006104,17.7001953,52.0006104z M28.4394531,26.2457275    c-2.1904907,2.7346802-3.6063843,6.0587158-4.1366577,9.5800781H11.0964966    c-0.546936-3.5978394-1.9331055-6.8736572-4.0574341-9.5112305C5.0507813,23.838501,4,20.8634033,4,17.7105713    C3.8540006,10.36551,10.3659143,3.8283238,17.7061691,3.9963379C24.5269737,3.8627534,30.7561169,9.4978991,31.34375,16.3536377    c0.0009766,0.0019531,0.0009766,0.0043945,0.0009766,0.0063477    C31.7011719,19.9249268,30.6689453,23.4366455,28.4394531,26.2457275z"/><path d="M31,46.0006104c-3.3085938,0-6,2.6914063-6,6c0.2814999,7.9411087,11.719696,7.9390678,12.0000076-0.0000992    C37,48.6920166,34.3085938,46.0006104,31,46.0006104z M31,56.0006104    c-5.2862778-0.1677551-5.2850437-7.8330345,0.0000877-8.0000038C36.2862778,48.1683655,36.2850456,55.8336411,31,56.0006104z"/><path d="M35.7099609,45.6856689c0.3799591,0.4032211,1.0119705,0.4210472,1.4140625,0.043457L44,39.2590942v3.3982544    c0.0203552,1.3119125,1.978508,1.3161163,1.9999962-0.0000458C46,42.6573486,46,37.0006104,46,37.0006104    c0-0.5522461-0.4472656-1-1-1h-5.6572266c-1.3127823,0.0223846-1.3160248,1.9773178,0.000042,1.9999962    c-0.000042,0.0000038,3.0750923,0.0000038,3.0750923,0.0000038l-6.664978,6.2714844    C35.3505859,44.651001,35.3320313,45.2838135,35.7099609,45.6856689z"/><path d="M56.7070313,26.2935791c-0.390625-0.390625-1.0234375-0.390625-1.4140625,0L52,29.5865479l-3.2929688-3.2929688    c-0.390625-0.390625-1.0234375-0.390625-1.4140625,0s-0.390625,1.0234375,0,1.4140625l3.2929688,3.2929688l-3.2929688,3.2929688    c-0.390625,0.390625-0.390625,1.0234375,0,1.4140625s1.0234375,0.390625,1.4140625,0L52,32.4146729l3.2929688,3.2929688    c0.390625,0.390625,1.0234375,0.390625,1.4140625,0s0.390625-1.0234375,0-1.4140625l-3.2929688-3.2929688l3.2929688-3.2929688    C57.0976563,27.3170166,57.0976563,26.6842041,56.7070313,26.2935791z"/><path d="M56,48.0006104h-6c-1.3127251,0.0215378-1.3158035,1.97789,0.0000458,1.9999962    C50,50.0006104,56,50.0006104,56,50.0006104C57.3127251,49.9790688,57.3158035,48.0227165,56,48.0006104z"/><path d="M56,54.0006104H45c-1.3111572,0.0210495-1.3170967,1.9777374,0.0000458,1.9999962    C45,56.0006104,56,56.0006104,56,56.0006104C57.3111572,55.979557,57.3170967,54.0228729,56,54.0006104z"/><path d="M51,17.0006104H38c-0.5527344,0-1,0.4477539-1,1s0.4472656,1,1,1h13    C52.3105087,18.9797573,52.3176308,17.0229359,51,17.0006104z"/></g></g><text x="0" y="79" fill="#000000" font-size="5px" font-weight="bold" font-family="'Helvetica Neue', Helvetica, Arial-Unicode, Arial, Sans-serif">Created by Graphic Enginer</text><text x="0" y="84" fill="#000000" font-size="5px" font-weight="bold" font-family="'Helvetica Neue', Helvetica, Arial-Unicode, Arial, Sans-serif">from the Noun Project</text></svg>